<svg height="800pt" preserveAspectRatio="xMidYMid meet" viewBox="0 0 800 800" width="800pt" xmlns="http://www.w3.org/2000/svg"><g transform="matrix(.1 0 0 -.1 0 800)"><path d="m3 5834c2-1122 7-2055 10-2074 9-54 26-142 32-170 3-14 7-34 9-45 33-150 117-357 215-529 103-180 288-392 461-528 41-33 82-65 90-71 13-10 118-75 185-114 20-12 86-45 95-48 3-1 31-13 64-28 63-29 251-94 294-102 15-3 42-9 60-14s35-10 37-10c5 0 22-3 100-16 139-23 441-24 555 0 13 2 42 7 65 10 60 9 257 62 331 90 108 41 227 96 232 108 2 4 10 7 18 7s27 8 42 19c15 10 54 35 87 56 284 180 541 469 684 770 24 50 47 98 52 107 25 49 83 236 104 338 36 174 39 210 39 410-1 171-4 226-20 320-3 19-7 44-9 55s-4 22-5 25-2 8-1 12c0 4-6 25-14 47-8 23-15 45-15 49-2 16-12 58-17 72-4 8-7 18-8 23-2 4-3 8-5 10-1 1-3 10-5 19s-10 32-19 49c-9 18-16 40-16 51 0 10-4 18-10 18-5 0-10 6-10 13 0 6-13 40-30 75-16 34-29 65-29 69 0 3-4 9-9 12s-17 22-27 41c-23 44-118 189-142 215-10 11-30 36-44 55-60 79-188 202-344 328-36 29-199 128-270 165-133 68-338 142-444 162-14 3-37 7-51 10-62 14-77 17-105 20-16 2-57 7-90 10-86 10-269 11-345 3-134-14-209-25-265-40-22-5-47-11-56-13-78-15-392-134-409-155-3-3-30-19-60-34-94-49-308-201-318-228-2-4-9-8-15-8-9 0-12 227-13 923-1 507-4 939-8 961-15 75-14 72-47 151-7 17-13 32-13 35-1 3-22 35-48 72-116 162-273 254-471 275l-58 6zm2127-558c19-4 56-11 81-17 26-6 53-12 60-13 8-2 21-6 29-9s44-15 79-28c60-20 220-95 231-108 3-4 25-19 49-35 131-85 263-218 353-357 87-132 136-250 187-445 40-152 27-489-24-616-8-21-12-38-9-38s2-6-3-12c-4-7-8-15-9-18-1-8-15-43-27-70-6-14-11-27-12-30-4-19-60-126-67-128-4-2-8-10-8-18s-4-14-10-14c-5 0-10-6-10-13 0-17-123-171-184-231-66-64-191-157-271-202-60-33-222-103-255-109-8-2-33-8-55-14-112-30-196-39-340-36-82 2-162 6-177 9-27 6-42 9-105 21-148 30-408 161-523 265-90 80-109 99-162 161-32 36-58 71-58 77s-3 12-7 14c-9 3-53 64-53 72 0 3-14 28-30 56-17 28-30 57-30 65 0 7-4 15-9 17-16 6-59 140-96 303-17 74-23 299-10 380 3 22 8 51 9 65 8 55 17 94 27 111 5 11 7 19 5 19-9 0 44 139 80 214 59 121 144 240 245 346 47 49 182 156 239 189 111 65 284 137 370 155 14 3 36 7 50 10s45 9 70 12 46 7 48 9c5 5 298-3 332-9z"/><path d="m5925 5932c-2-2-27-5-56-8-109-10-144-15-265-44-122-30-313-97-326-115-4-5-8-7-8-3 0 14-222-109-315-174-243-172-447-398-583-648-20-36-41-68-46-72-6-4-8-8-3-8 4 0-4-23-18-51-61-120-127-330-151-484-3-16-7-41-9-55-17-102-22-302-11-440 20-260 117-567 252-800 33-56 134-204 171-249 15-19 78-85 138-146 124-126 260-231 410-317 95-55 296-142 375-164 124-34 213-55 250-60 25-3 54-8 65-10 111-22 415-22 535 0 14 3 52 10 85 15 94 17 184 40 238 60 15 6 27 8 27 5 0-4 6-1 13 5 8 6 17 8 20 4 4-3 7-1 7 5 0 7 9 12 21 12 11 0 33 6 47 14 15 8 65 33 112 55 97 46 173 88 239 133 59 40 185 140 189 150 2 4 9 8 16 8 9 0 11-74 10-302 0-167-4-321-8-343s-9-51-11-65c-4-35-33-149-48-185-6-16-12-35-13-41-5-31-91-197-141-273-75-111-235-271-344-344-48-31-91-57-98-57-6 0-11-4-11-10 0-5-9-10-19-10-11 0-22-4-25-9-5-7-165-74-206-86-16-4-74-17-136-30-114-24-349-25-459-1-291 63-490 169-685 365-124 124-197 234-290 436-90 194-241 339-430 413-89 34-147 47-259 57l-44 4 7-112c8-130 13-173 28-242 6-27 12-59 12-70 1-11 4-24 7-30 4-5 10-28 14-50 9-43 9-43 17-65 3-8 16-44 29-80 74-215 190-417 340-595 103-122 230-240 366-341 44-32 179-114 188-114 5 0 16-6 24-13 9-7 36-22 61-32 25-11 47-22 50-25 8-8 227-88 259-95 9-2 43-10 76-19 33-8 78-18 100-22 22-3 42-7 45-9 41-25 508-26 620-2 8 2 38 7 65 12 28 4 55 10 60 14 6 3 15 6 20 6 22 2 91 18 100 24 6 3 12 6 15 7 71 13 359 136 368 156 2 5 8 8 13 8 10 0 209 127 219 139 3 3 37 32 75 63 77 62 187 173 256 258 24 30 46 57 49 60 13 13 109 160 131 200 13 25 27 47 30 50 5 4 50 96 54 110 0 3 10 26 22 52 24 52 79 210 87 249 3 13 12 51 20 84s17 80 20 105 9 56 13 70 9 945 10 2071l4 2045-38-2c-126-7-268-60-357-134-98-81-169-178-206-279-37-102-31-96-68-62-17 17-35 31-38 31-4 0-14 8-23 19-57 65-372 245-526 300-33 12-69 26-80 30-21 10-160 46-210 56-16 3-46 8-65 11s-46 7-60 10c-75 13-395 26-405 16zm338-656c38-9 79-17 97-20 38-7 78-19 115-33 62-24 76-30 135-56 30-13 57-23 60-23 3 1 12-5 20-11 8-7 49-35 90-62 229-152 418-393 498-637 40-120 53-166 48-171-3-3 0-17 5-32 14-34 22-133 21-246 0-78-8-180-12-180-1 0-3-11-4-25-6-53-49-199-83-280-64-149-155-286-275-411-52-54-226-189-244-189-7 0-14-4-16-9-8-22-260-126-350-145-13-3-34-7-48-10-70-16-128-20-260-20-142 0-160 2-269 23-57 12-222 66-256 84-11 6-23 10-27 9-5-1-8 2-8 8 0 5-9 10-20 10s-20 3-20 8c0 4-23 18-50 31-28 14-50 29-50 33s-5 8-11 8c-32 0-231 184-303 280-22 30-43 57-46 60-8 7-56 90-90 154-57 110-115 302-126 421-9 92-10 244-2 300 14 93 18 115 27 152 25 96 34 129 42 138 5 5 9 15 9 21 0 21 100 224 120 244 3 3 21 28 40 55 61 88 164 194 255 262 33 25 62 48 65 52 7 9 59 39 103 59 20 9 37 20 37 24 0 5 7 8 15 8 9 0 26 6 38 14 28 18 190 73 237 81 19 3 42 8 50 10s33 6 54 10c22 3 42 7 44 9 6 6 313-1 345-8z"/></g></svg>