<svg xmlns="http://www.w3.org/2000/svg" viewBox="0 0 512 512">
	<style>
		g{
			animation-name: rotate;
			animation-duration: 30s;
			animation-timing-function: linear;
			animation-iteration-count: infinite;
			transform-origin: center;
		}

		@keyframes rotate {
			0%{
				transform: rotate(0deg) scale(.75);
			}
		
			100%{
				transform: rotate(360deg) scale(.75);
			}
		}
	</style>
	<g>
		<path d="M399,337.4C366.5,568.5,25.1,467.9,54.9,267.5C73.1,188,179.4,104,262,111.7
	C354.2,127.6,415.9,247.4,399,337.4z" />
		<path d="M347.6,10.3c69.1,5.2,87.3,94.2,12.2,104.7c-29.5,1-65.9-24.6-98.1-27.8c-32.1-3.2-60.2,16-84.1,15
	c-53.3-2-64.6-87.1-9.2-95.3c24-2.2,56.5,18.1,88,18.9C287.8,26.6,318.1,8,347.6,10.3z" />
		<path d="M492.9,267.7c16.7,21.1,25.9,50.2,13.5,78.1c-7.6,15.5-23.8,29.8-40.1,29.9c-16.4,0.2-32.9-13.8-38.9-29.3
	c-6.1-15.5-1.8-32.5-1.9-49.5c0-17.1-4.4-34.1,1.8-43.7C443.6,232.3,480.7,248.1,492.9,267.7z" />
		<path d="M65.8,504.8C20.2,503-21.1,450.6,10.7,409c11.5-12.1,32.7-14.2,47.6-7.7c14.9,6.5,23.5,21.7,35.2,33.7
	c11.7,12.1,26.5,20.9,28.7,32.2C125.1,492.9,88.3,510.1,65.8,504.8z" />
	</g>
</svg>