<?xml version="1.0" standalone="no"?>
<!DOCTYPE svg PUBLIC "-//W3C//DTD SVG 20010904//EN"
 "http://www.w3.org/TR/2001/REC-SVG-20010904/DTD/svg10.dtd">
<svg version="1.0" xmlns="http://www.w3.org/2000/svg"
 width="1024.000000pt" height="1024.000000pt" viewBox="0 0 1024.000000 1024.000000"
 preserveAspectRatio="xMidYMid meet">
<metadata>
Created by potrace 1.14, written by Peter Selinger 2001-2017
</metadata>
<g transform="translate(0.000000,1024.000000) scale(0.100000,-0.100000)"
fill="#000000" stroke="none">
<path d="M0 5120 l0 -5120 5120 0 5120 0 0 5120 0 5120 -5120 0 -5120 0 0
-5120z m6410 2215 l183 -245 863 0 864 0 0 -2215 0 -2215 -3200 0 -3200 0 0
2215 0 2215 250 0 250 0 0 120 0 120 485 0 485 0 0 -120 0 -120 129 0 129 0
182 245 182 245 1108 0 1108 0 182 -245z"/>
<path d="M4071 6845 l-183 -245 -739 0 -739 0 0 -495 0 -495 718 0 717 0 40
63 c208 324 557 562 945 644 160 34 405 35 563 4 392 -79 751 -321 964 -652
l38 -59 718 0 717 0 0 495 0 495 -739 0 -740 0 -183 245 -183 245 -865 0 -865
0 -184 -245z m3259 -740 l0 -245 -240 0 -240 0 0 245 0 245 240 0 240 0 0
-245z"/>
<path d="M4942 5844 c-490 -89 -840 -531 -808 -1020 24 -370 226 -676 550
-834 136 -67 232 -91 386 -97 147 -6 239 6 366 47 427 142 712 580 665 1022
-15 136 -41 231 -96 343 -166 342 -515 558 -895 554 -52 -1 -128 -7 -168 -15z"/>
<path d="M2410 4135 l0 -985 2710 0 2710 0 0 985 0 985 -630 0 -630 0 8 -47
c15 -97 7 -393 -12 -483 -128 -596 -570 -1035 -1170 -1162 -135 -28 -398 -31
-531 -5 -450 88 -826 360 -1041 754 -59 108 -117 264 -145 393 -20 87 -24 135
-24 280 0 96 3 196 7 223 l8 47 -630 0 -630 0 0 -985z"/>
</g>
</svg>
