<svg height="1024pt" preserveAspectRatio="xMidYMid meet" viewBox="0 0 1024 1024" width="1024pt" xmlns="http://www.w3.org/2000/svg"><g transform="matrix(.1 0 0 -.1 0 1024)"><path d="m0 5120v-5120h5120 5120v5120 5120h-5120-5120zm6410 2215 183-245h863 864v-2215-2215h-3200-3200v2215 2215h250 250v120 120h485 485v-120-120h129 129l182 245 182 245h1108 1108z"/><path d="m4071 6845-183-245h-739-739v-495-495h718 717l40 63c208 324 557 562 945 644 160 34 405 35 563 4 392-79 751-321 964-652l38-59h718 717v495 495h-739-740l-183 245-183 245h-865-865zm3259-740v-245h-240-240v245 245h240 240z"/><path d="m4942 5844c-490-89-840-531-808-1020 24-370 226-676 550-834 136-67 232-91 386-97 147-6 239 6 366 47 427 142 712 580 665 1022-15 136-41 231-96 343-166 342-515 558-895 554-52-1-128-7-168-15z"/><path d="m2410 4135v-985h2710 2710v985 985h-630-630l8-47c15-97 7-393-12-483-128-596-570-1035-1170-1162-135-28-398-31-531-5-450 88-826 360-1041 754-59 108-117 264-145 393-20 87-24 135-24 280 0 96 3 196 7 223l8 47h-630-630z"/></g></svg>