<svg id="Ebene_1" data-name="Ebene 1" xmlns="http://www.w3.org/2000/svg" xmlns:xlink="http://www.w3.org/1999/xlink" viewBox="0 0 512 512"><defs><style>.cls-1,.cls-2,.cls-3,.cls-4,.cls-5{fill-rule:evenodd;}.cls-1{fill:url(#Unbenannter_Verlauf_8);}.cls-2{fill-opacity:0.4;fill:url(#Unbenannter_Verlauf_9);}.cls-3{fill:url(#Unbenannter_Verlauf_8-3);}.cls-4{fill-opacity:0.3;fill:url(#Unbenannter_Verlauf_7);}.cls-5{fill:url(#Unbenannter_Verlauf_13);}</style><linearGradient id="Unbenannter_Verlauf_8" x1="177.8" y1="-1406.29" x2="133.7" y2="-1441.34" gradientTransform="matrix(1, 0, 0, -1, 0, -1082)" gradientUnits="userSpaceOnUse"><stop offset="0" stop-color="#ffa794" stop-opacity="0.3"/><stop offset="1" stop-color="#ff9794"/></linearGradient><linearGradient id="Unbenannter_Verlauf_9" x1="119.42" y1="-1454.09" x2="166.63" y2="-1411.35" gradientTransform="matrix(1, 0, 0, -1, 0, -1082)" gradientUnits="userSpaceOnUse"><stop offset="0" stop-color="#ffdfd7"/><stop offset="1" stop-color="#ffdfd7"/></linearGradient><linearGradient id="Unbenannter_Verlauf_8-3" x1="178.58" y1="-1306.55" x2="129.83" y2="-1355.87" xlink:href="#Unbenannter_Verlauf_8"/><linearGradient id="Unbenannter_Verlauf_7" x1="123.99" y1="-1361.94" x2="173.58" y2="-1310.76" gradientTransform="matrix(1, 0, 0, -1, 0, -1082)" gradientUnits="userSpaceOnUse"><stop offset="0" stop-color="#ffa694"/><stop offset="1" stop-color="#ffb7a9"/></linearGradient><linearGradient id="Unbenannter_Verlauf_13" x1="447.98" y1="-1387.12" x2="104.8" y2="-1148.05" gradientTransform="matrix(1, 0, 0, -1, 0, -1082)" gradientUnits="userSpaceOnUse"><stop offset="0" stop-color="#ff6661"/><stop offset="1" stop-color="#ff7d73"/></linearGradient></defs><path class="cls-1" d="M256.79,431.62V508.7a48,48,0,0,1-33.23-13.27l0,0-6.44-7.6L5.9,239.68a.76.76,0,0,1-.3-.34l-.86-1-.16-.2a17.33,17.33,0,0,1-2.49-4.49,17.74,17.74,0,0,1-1.3-6.17v-1.3A18.35,18.35,0,0,1,5.92,214a19.06,19.06,0,0,1,13.91-6H66.35l190.4,223.68h0Z"/><path class="cls-1" d="M256.79,431.62V508.7a48,48,0,0,1-33.23-13.27l0,0-6.44-7.6L5.9,239.68a.76.76,0,0,1-.3-.34l-.86-1-.16-.2a17.33,17.33,0,0,1-2.49-4.49,17.74,17.74,0,0,1-1.3-6.17v-1.3A18.35,18.35,0,0,1,5.92,214a19.06,19.06,0,0,1,13.91-6H66.35l190.4,223.68h0Z"/><path class="cls-2" d="M256.79,431.62V508.7a48,48,0,0,1-33.23-13.27l0,0-6.44-7.6L59.53,302.7l-53.63-63a.76.76,0,0,1-.3-.34l-.86-1-.16-.2a17.33,17.33,0,0,1-2.49-4.49,17.74,17.74,0,0,1-1.3-6.17v-1.3A18.35,18.35,0,0,1,5.92,214a19.06,19.06,0,0,1,13.91-6H66.35l21.89,25.71,58.76,69,96.3,113.15,13.45,15.81Z"/><path class="cls-3" d="M256.79,329.22V432.14l0,0L5.56,137.85A18.3,18.3,0,0,1,.79,126v-1.27A18.27,18.27,0,0,1,5.9,112.55a18.81,18.81,0,0,1,13.93-6H66.74Z"/><path class="cls-3" d="M256.79,329.22V432.14l0,0L5.56,137.85A18.3,18.3,0,0,1,.79,126v-1.27A18.27,18.27,0,0,1,5.9,112.55a18.81,18.81,0,0,1,13.93-6H66.74Z"/><path class="cls-4" d="M256.79,329.22V432.14l0,0-13.43-15.76L147,303.56,88.24,234.71,66.35,209.08,5.56,137.85A18.3,18.3,0,0,1,.79,126v-1.27A18.27,18.27,0,0,1,5.9,112.55a18.81,18.81,0,0,1,13.93-6H66.74L88.65,132.2l65.61,76.88,21.89,25.63,58.75,68.85,21.89,25.63Z"/><path class="cls-5" d="M19,3.3a18.83,18.83,0,0,0-13.93,6A18.28,18.28,0,0,0,0,21.49v1.25A17.36,17.36,0,0,0,1.29,29a1.86,1.86,0,0,0,.16.45,17.68,17.68,0,0,0,3.79,5.68L256,328.88V508.7a47.83,47.83,0,0,0,33.21-13.25l0,0,6.47-7.58L507.19,240l.75-.88a17.3,17.3,0,0,0,2.74-4.77,17.82,17.82,0,0,0,1.32-6.8V22.11a18.41,18.41,0,0,0-5.15-12.8,18.94,18.94,0,0,0-14-6H19Z"/><path class="cls-5" d="M19,3.3a18.83,18.83,0,0,0-13.93,6A18.28,18.28,0,0,0,0,21.49v1.25A17.36,17.36,0,0,0,1.29,29a1.86,1.86,0,0,0,.16.45,17.68,17.68,0,0,0,3.79,5.68L256,328.88V508.7a47.83,47.83,0,0,0,33.21-13.25l0,0,6.47-7.58L507.19,240l.75-.88a17.3,17.3,0,0,0,2.74-4.77,17.82,17.82,0,0,0,1.32-6.8V22.11a18.41,18.41,0,0,0-5.15-12.8,18.94,18.94,0,0,0-14-6H19Z"/><path class="cls-5" d="M19,3.3a18.83,18.83,0,0,0-13.93,6A18.28,18.28,0,0,0,0,21.49v1.25A17.36,17.36,0,0,0,1.29,29a1.86,1.86,0,0,0,.16.45,17.68,17.68,0,0,0,3.79,5.68L256,328.88V508.7a47.83,47.83,0,0,0,33.21-13.25l0,0,6.47-7.58L507.19,240l.75-.88a17.3,17.3,0,0,0,2.74-4.77,17.82,17.82,0,0,0,1.32-6.8V22.11a18.41,18.41,0,0,0-5.15-12.8,18.94,18.94,0,0,0-14-6H19Z"/><path class="cls-5" d="M19,3.3a18.83,18.83,0,0,0-13.93,6A18.28,18.28,0,0,0,0,21.49v1.25A17.36,17.36,0,0,0,1.29,29a1.86,1.86,0,0,0,.16.45,17.68,17.68,0,0,0,3.79,5.68L256,328.88V508.7a47.83,47.83,0,0,0,33.21-13.25l0,0,6.47-7.58L507.19,240l.75-.88a17.3,17.3,0,0,0,2.74-4.77,17.82,17.82,0,0,0,1.32-6.8V22.11a18.41,18.41,0,0,0-5.15-12.8,18.94,18.94,0,0,0-14-6H19Z"/><path class="cls-5" d="M19,3.3a18.83,18.83,0,0,0-13.93,6A18.28,18.28,0,0,0,0,21.49v1.25A17.36,17.36,0,0,0,1.29,29a1.86,1.86,0,0,0,.16.45,17.68,17.68,0,0,0,3.79,5.68L256,328.88V508.7a47.83,47.83,0,0,0,33.21-13.25l0,0,6.47-7.58L507.19,240l.75-.88a17.3,17.3,0,0,0,2.74-4.77,17.82,17.82,0,0,0,1.32-6.8V22.11a18.41,18.41,0,0,0-5.15-12.8,18.94,18.94,0,0,0-14-6H19Z"/><path class="cls-5" d="M19,3.3a18.83,18.83,0,0,0-13.93,6A18.28,18.28,0,0,0,0,21.49v1.25A17.36,17.36,0,0,0,1.29,29a1.86,1.86,0,0,0,.16.45,17.68,17.68,0,0,0,3.79,5.68L256,328.88V508.7a47.83,47.83,0,0,0,33.21-13.25l0,0,6.47-7.58L507.19,240l.75-.88a17.3,17.3,0,0,0,2.74-4.77,17.82,17.82,0,0,0,1.32-6.8V22.11a18.41,18.41,0,0,0-5.15-12.8,18.94,18.94,0,0,0-14-6H19Z"/></svg>