<?xml version="1.0" standalone="no"?>
<!DOCTYPE svg PUBLIC "-//W3C//DTD SVG 20010904//EN"
 "http://www.w3.org/TR/2001/REC-SVG-20010904/DTD/svg10.dtd">
<svg version="1.0" xmlns="http://www.w3.org/2000/svg"
 width="700.000000pt" height="700.000000pt" viewBox="0 0 700.000000 700.000000"
 preserveAspectRatio="xMidYMid meet">
<metadata>
Created by potrace 1.14, written by Peter Selinger 2001-2017
</metadata>
<g transform="translate(0.000000,700.000000) scale(0.100000,-0.100000)"
fill="#000000" stroke="none">
<path d="M4888 5285 c-2 -2 -43 -5 -93 -9 -502 -33 -924 -307 -1143 -742 -114
-226 -173 -453 -201 -761 -9 -104 -7 -592 3 -678 53 -459 201 -794 465 -1055
89 -88 220 -183 329 -239 35 -18 87 -47 115 -65 97 -62 265 -131 392 -162 131
-31 197 -37 395 -40 243 -2 341 7 548 50 276 58 544 191 707 351 l71 70 0 683
-1 682 -35 1 c-19 1 -41 0 -49 -1 -23 -3 -26 13 -24 129 0 61 -2 111 -5 112
-4 0 -337 2 -740 2 l-732 2 0 -327 0 -326 103 0 c56 0 110 0 120 -1 14 -1 17
-11 17 -54 l0 -54 193 0 c105 -1 195 -2 200 -2 4 -1 6 -89 5 -198 l-3 -196
-61 -34 c-191 -104 -563 -116 -754 -24 -88 43 -163 100 -201 152 -22 31 -65
175 -80 268 -21 134 -24 192 -24 491 1 239 5 329 18 418 78 499 314 744 717
743 63 0 126 -3 140 -6 14 -3 39 -8 55 -11 45 -8 71 -29 110 -87 53 -80 100
-223 108 -329 1 -20 4 -21 129 -19 l87 1 6 -43 c4 -24 10 -49 14 -55 5 -9 95
-12 347 -10 l340 3 -13 80 c-34 204 -96 377 -188 520 -19 30 -48 81 -65 112
-65 124 -117 197 -201 282 -149 151 -387 278 -607 326 -12 3 -30 7 -39 9 -24
5 -102 18 -133 22 -76 10 -336 24 -342 19z m187 -139 c135 -7 150 -8 263 -31
119 -23 305 -95 396 -153 55 -35 54 -40 -1 -17 -45 19 -212 64 -261 70 -20 3
-46 7 -58 9 -116 23 -442 24 -554 1 -14 -3 -41 -8 -60 -11 -140 -22 -325 -94
-461 -179 -285 -179 -490 -480 -584 -855 -13 -52 -26 -106 -28 -120 -3 -14 -8
-45 -12 -70 -4 -25 -9 -54 -11 -65 -25 -126 -24 -762 1 -880 3 -11 7 -36 9
-55 17 -118 52 -252 97 -370 23 -60 25 -70 9 -50 -24 31 -110 206 -110 223 0
7 -4 17 -9 23 -16 15 -70 212 -92 329 -25 139 -33 268 -33 520 0 346 22 527
89 748 156 517 528 848 1035 923 55 8 231 21 245 17 6 -1 64 -4 130 -7z m626
-958 l19 -38 -24 0 c-21 0 -27 7 -36 43 -6 23 -15 53 -20 67 -10 23 -9 23 15
-5 15 -16 35 -47 46 -67z m520 -707 c12 -1 15 -12 14 -53 l-1 -53 -540 -2
c-296 -1 -545 -2 -551 -2 -10 -1 -13 -36 -13 -139 l0 -138 -55 -1 -55 0 0 196
0 196 592 -2 c326 -1 600 -2 609 -2z m-458 -630 c4 -1 7 -133 7 -295 l0 -295
-34 -28 c-107 -87 -293 -137 -516 -136 -193 0 -304 29 -457 119 -34 20 -46 41
-15 29 49 -21 160 -36 267 -38 113 -1 248 7 277 18 7 2 25 6 40 9 50 8 150 48
208 82 78 45 120 90 121 128 0 17 0 115 -1 218 l0 187 22 3 c20 3 50 2 81 -1z"/>
<path d="M503 3464 c0 -1301 3 -1774 11 -1777 6 -2 59 -3 119 -3 66 1 107 -2
108 -9 1 -5 1 -29 0 -51 -1 -26 3 -43 11 -46 21 -7 1457 -1 1533 6 229 23 469
101 615 199 120 81 225 197 283 312 81 163 119 411 93 616 -14 115 -59 235
-126 334 -14 22 -43 73 -64 114 -39 79 -115 180 -171 229 l-34 30 37 28 c179
134 280 343 286 589 6 213 -41 394 -137 534 -17 25 -44 72 -60 105 -125 260
-380 437 -740 515 -52 11 -120 23 -152 27 -32 3 -68 8 -79 11 -12 3 -361 6
-777 8 l-756 2 0 -1773z m1507 1632 c25 -3 61 -8 80 -10 207 -25 398 -88 534
-174 55 -35 54 -40 -1 -17 -21 9 -80 27 -133 40 -86 22 -137 31 -280 51 -25 3
-365 7 -756 9 l-711 2 -1 -1571 c0 -864 -1 -1580 -1 -1591 -1 -18 -7 -21 -43
-20 -24 0 -48 3 -54 7 -7 5 -10 500 -9 1645 1 901 3 1638 3 1638 15 5 1340 -4
1372 -9z m130 -685 c36 -7 61 -19 72 -34 27 -35 48 -127 48 -208 0 -187 -81
-291 -265 -340 -69 -18 -113 -21 -312 -24 l-233 -2 0 71 c-1 365 0 538 4 544
7 12 623 6 686 -7z m330 -232 c44 -116 41 -274 -6 -379 -32 -71 -102 -141
-177 -175 -107 -49 -177 -58 -520 -60 l-318 -3 3 55 3 55 230 3 c127 2 244 6
261 8 238 41 379 152 430 340 15 54 20 215 8 263 -6 28 -6 28 29 -10 20 -22
46 -65 57 -97z m310 -848 l24 -19 -42 11 c-26 7 -37 14 -29 19 17 11 19 10 47
-11z m-550 -278 c66 -16 114 -153 106 -303 -2 -41 -6 -86 -10 -99 -19 -82 -92
-170 -172 -211 -94 -46 -134 -52 -426 -56 l-278 -4 0 343 0 343 373 -3 c204
-1 388 -6 407 -10z m251 -135 c31 -36 60 -97 80 -165 25 -89 20 -257 -10 -333
-53 -136 -167 -226 -337 -266 -16 -4 -194 -8 -396 -11 l-368 -3 0 55 0 55 243
1 c133 0 262 2 287 5 144 17 268 71 351 154 103 102 138 202 135 377 -1 65 -6
126 -10 136 -11 24 2 21 25 -5z"/>
</g>
</svg>
