<svg class="tablet" data-name="Tablet" xmlns="http://www.w3.org/2000/svg" xmlns:xlink="http://www.w3.org/1999/xlink" viewBox="0 0 2583 2317.64">
  <defs>
    <clipPath id="clip-path">
      <path d="M135.41,99.19h2318a35,35,0,0,1,35,35v1598a35,35,0,0,1-35,35h-2318a35,35,0,0,1-35-35v-1598A35,35,0,0,1,135.41,99.19Z" fill="none"/>
    </clipPath>
  </defs>
  <path id="body" d="M137.41,1862.19a132,132,0,0,1-132-132v-1468h-3a2,2,0,0,1-2-2v-120a2,2,0,0,1,2-2h3v-2a132,132,0,0,1,132-132h72v-3a2,2,0,0,1,2-2h101a2,2,0,0,1,2,2v3h20v-3a2,2,0,0,1,2-2h101a2,2,0,0,1,2,2v3h2012a132,132,0,0,1,132,132v1594a132,132,0,0,1-132,132Z" />
  <g clip-path="url(#clip-path)">
    <image width="2388" transform="translate(100 100)" xlink:href="bgebelein-portfolio.png"/>
  </g>
</svg>
