<?xml version="1.0" standalone="no"?>
<!DOCTYPE svg PUBLIC "-//W3C//DTD SVG 20010904//EN"
 "http://www.w3.org/TR/2001/REC-SVG-20010904/DTD/svg10.dtd">
<svg version="1.0" xmlns="http://www.w3.org/2000/svg"
 width="700.000000pt" height="700.000000pt" viewBox="0 0 700.000000 700.000000"
 preserveAspectRatio="xMidYMid meet">
<metadata>
Created by potrace 1.14, written by Peter Selinger 2001-2017
</metadata>
<g transform="translate(0.000000,700.000000) scale(0.100000,-0.100000)"
fill="#000000" stroke="none">
<path d="M4010 6260 c0 -5 20 -42 44 -82 41 -67 90 -165 143 -288 11 -25 33
-83 49 -130 15 -47 30 -87 31 -89 3 -4 1133 -8 1133 -4 0 10 -350 188 -515
262 -77 34 -149 66 -160 71 -175 80 -725 277 -725 260z"/>
<path d="M4310 5559 c0 -4 9 -45 20 -91 19 -81 22 -100 36 -183 14 -91 27
-215 28 -277 l1 -48 963 0 c914 0 962 1 953 18 -18 34 -202 204 -356 331 -46
37 -206 151 -284 202 l-85 54 -638 0 c-351 1 -638 -2 -638 -6z"/>
<path d="M4394 4797 c-1 -68 -11 -218 -18 -257 -2 -14 -10 -59 -16 -100 -7
-41 -18 -100 -25 -130 l-12 -55 1176 1 c647 1 1179 2 1182 3 10 2 -9 86 -41
183 -38 113 -84 205 -164 326 l-60 92 -1011 0 -1010 0 -1 -63z"/>
<path d="M4295 4150 c-1 -3 -12 -39 -25 -80 -28 -94 -107 -295 -149 -377 -17
-35 -32 -66 -32 -70 0 -5 -9 -23 -21 -40 l-20 -33 1275 0 1275 0 15 38 c19 47
53 167 61 212 3 19 9 46 12 60 3 14 8 86 11 160 l6 135 -1203 0 c-661 0 -1203
-2 -1205 -5z"/>
<path d="M3964 3403 c-89 -154 -352 -513 -398 -545 -7 -5 -7 -8 -1 -9 54 -6
2555 -3 2568 4 16 8 44 35 115 116 83 94 191 254 266 394 l47 87 -1284 0
-1285 0 -28 -47z"/>
<path d="M3319 2590 c-173 -173 -270 -262 -400 -365 -48 -38 -88 -73 -88 -77
-1 -5 526 -8 1169 -8 l1170 0 138 82 c165 98 315 197 440 290 96 73 265 214
270 226 1 4 -571 7 -1270 7 l-1273 0 -156 -155z"/>
<path d="M2610 1982 c-41 -31 -129 -94 -195 -139 -66 -45 -124 -86 -130 -91
-38 -29 -410 -262 -420 -262 -3 0 -75 -47 -82 -53 -1 -2 386 -2 860 -1 l862 1
215 76 c263 92 342 121 507 188 187 75 211 85 414 178 86 39 196 91 245 115
l89 45 -1145 0 -1145 0 -75 -57z"/>
<path d="M1510 1312 c-25 -13 -189 -97 -365 -186 -281 -142 -407 -202 -760
-361 -44 -20 -66 -34 -50 -31 17 3 50 8 75 11 25 4 56 8 70 10 14 2 48 7 75
10 28 4 57 8 65 10 8 3 35 7 60 10 39 5 234 37 310 51 34 6 188 34 224 40 54
9 331 65 371 74 40 9 260 56 304 65 107 20 622 150 876 220 132 37 257 72 278
77 21 6 35 13 32 16 -3 3 -346 6 -763 6 l-757 1 -45 -23z"/>
</g>
</svg>
