<svg xmlns="http://www.w3.org/2000/svg" width="49.6" height="48" viewBox="0 0 49.6 48"><g transform="translate(11046.8 13910)"><path d="M12,12a11.942,11.942,0,0,0-8,3.074V4A4,4,0,0,0,0,0V24A12,12,0,1,0,12,12m0,20a8,8,0,0,1-8-8H4v0A8,8,0,1,1,12,32" transform="translate(-11046.8 -13910)" fill="#0a0a0a"/><path d="M52.093,18.158A12,12,0,1,0,52,35.926V39h0a8,8,0,0,1-15.372,3.114A4.93,4.93,0,0,0,32.125,39H32a12,12,0,0,0,24,0h0V15a4,4,0,0,0-3.907,3.158M44,35a8,8,0,1,1,8-8,8,8,0,0,1-8,8" transform="translate(-11053.2 -13913)" fill="#0a0a0a"/></g></svg>