<svg xmlns="http://www.w3.org/2000/svg" xmlns:xlink="http://www.w3.org/1999/xlink" width="320" height="320" viewBox="0 0 320 320">
  <path id="Pfad_100" data-name="Pfad 100" d="M156.808-56.055C176.435-44.606,189.316-21.5,201.583,1.4c12.063,22.9,23.308,45.593,24.739,69.105,1.227,23.308-7.565,47.638-18.2,73.194s-22.9,52.544-43.957,74.217c-20.854,21.672-50.5,38.233-77.9,34.962-27.6-3.476-53.362-26.783-75.034-48.047S-28.222,164.141-45.4,141.856C-62.571,119.775-79.336,94.627-80.562,69.07-81.789,43.309-67.477,16.73-50.3-5.555c16.97-22.49,37.006-40.686,59.9-50.3,22.9-9.4,48.864-10.223,74.83-10.632C110.6-67.1,137.18-67.3,156.808-56.055Z" transform="translate(86.636 66.713)" fill="#f06"/>
  <path id="Pfad_98" data-name="Pfad 98" d="M143.588-60.035c18.291,14.084,28.167,39.142,43.349,62.188C202.3,25.2,222.969,46.233,230.1,71.474s.915,54.506-13.535,79.015-36.947,44.263-62.371,49.2-53.774-4.938-78.649-10.791c-25.058-6.036-46.458-7.865-66.212-16.1-19.571-8.414-37.313-22.863-54.872-41.52S-80.471,89.947-85.41,64.524c-4.938-25.607,2.561-53.957,16.279-79.2C-55.413-40.1-35.476-62.413-10.967-72.839S42.807-81.8,70.792-79.423C98.777-77.228,125.3-74.119,143.588-60.035Z" transform="translate(86.933 100.137)" fill="#f06"/>
  <path id="Pfad_99" data-name="Pfad 99" d="M155.222-51.432c25.564,9.418,54.2,19.221,66.12,39.018s7.112,49.4,5.766,78.421c-1.345,28.831.769,57.086-9.418,79.959-9.995,22.873-32.483,40.364-56.894,51.32-24.411,10.764-50.743,15.185-76.691,14.608-26.14-.577-51.9-5.958-78.037-15.761-25.948-9.995-52.281-24.6-70.541-46.9s-28.447-52.473-25.948-80.92C-87.73,39.675-72.545,12.573-54.093-9.531c18.26-22.1,39.787-39.211,63.237-49.782A146.18,146.18,0,0,1,82.375-71.807C106.594-69.5,129.466-60.851,155.222-51.432Z" transform="translate(90.794 90.418)" fill="#f06"/>
  <path id="Pfad_97" data-name="Pfad 97" d="M159.085-69.57c18.681,15.5,23.252,50.281,38.555,78.5,15.5,28.221,41.338,49.884,43.325,72.54s-20.073,46.306-38.555,69.161-33.189,44.716-53.858,61.41-46.9,28.42-72.341,26.432c-25.24-1.789-49.486-17.092-77.31-29.612S-60.521,186.6-71.253,165.539c-10.931-20.868-.795-53.063,2.981-83.073C-64.3,52.655-66.484,25.03-59.528-2.992c6.757-27.823,22.458-55.846,46.5-68.168C10.826-83.482,43.022-80.3,75.416-80.5,107.811-80.9,140.4-85.071,159.085-69.57Z" transform="translate(77.178 81.305)" fill="#f06"/>
</svg>

<svg xmlns="http://www.w3.org/2000/svg" width="320" height="319.989" viewBox="0 0 320 319.989">
  <path id="Pfad_97" data-name="Pfad 97" d="M160,0c56.554,0,110.282,9.909,138.867,54.4C314.743,79.113,320,128.188,320,160c0,42.592-31.77,69.242-58.956,97.964-29.114,30.759-42.455,62.025-88.229,62.025-41.62,0-102.972-10.661-131.6-36.865C9.419,254.028,0,206.745,0,160,0,130.221,7.343,81.706,21.67,57.563,49.389,10.852,101.414,0,160,0Z" transform="translate(0 0)" fill="red"/>
</svg>

<svg xmlns="http://www.w3.org/2000/svg" width="320" height="320" viewBox="0 0 320 320">
  <path id="Pfad_97" data-name="Pfad 97" d="M198.649-.183c56.675,0,76.587,27.633,105.233,71.959,15.91,24.618,16.8,55.932,16.8,87.625,0,42.433-15.937,88.529-43.181,117.144-29.176,30.644-84.607,43.273-130.479,43.273-41.709,0-58.226-33.633-86.921-59.739C28.242,231.091.682,186.19.682,139.62c0-29.668,27.267-67.237,41.625-91.289C70.085,1.8,139.938-.183,198.649-.183Z" transform="translate(-0.682 0.183)" fill="red"/>
</svg>

<svg xmlns="http://www.w3.org/2000/svg" width="320" height="320" viewBox="0 0 320 320">
  <path id="Pfad_97" data-name="Pfad 97" d="M165.972,1.125c56.582,0,91.226,19.824,119.825,64.421,15.884,24.769,34.884,86.144,34.884,118.03,0,42.692-16.681,66.638-43.88,95.427-29.129,30.831-104.245,42.123-150.042,42.123-41.641,0-64.094-33.924-92.741-60.19C2.211,231.772.682,187.32.682,140.466c0-29.849,46.213-58.877,60.547-83.077C88.962,10.569,107.357,1.125,165.972,1.125Z" transform="translate(-0.682 -1.125)" fill="red"/>
</svg>

<svg xmlns="http://www.w3.org/2000/svg" width="320" height="320" viewBox="0 0 320 320">
  <path id="Pfad_97" data-name="Pfad 97" d="M186.665,1.74c57.1,0,58.849,37.917,87.711,82.912,16.031,24.989,49.117,45.084,49.117,77.254,0,43.072-42.678,95.768-70.128,124.814-29.4,31.106-42.414,35.021-88.632,35.021-42.025,0-76-27.127-104.911-53.628-32.1-29.423-56.329-58.934-56.329-106.207,0-30.115,12.277-82.106,26.744-106.52C58.226,8.148,127.509,1.74,186.665,1.74Z" transform="translate(-3.494 -1.74)" fill="red"/>
</svg>

<svg xmlns="http://www.w3.org/2000/svg" width="316" height="316" viewBox="0 0 316 316">
  <g id="Ellipse_8" data-name="Ellipse 8" fill="none" stroke="#000" stroke-width="8">
    <circle cx="158" cy="158" r="158" stroke="none"/>
    <circle cx="158" cy="158" r="154" fill="none"/>
  </g>
</svg>
