<svg xmlns="http://www.w3.org/2000/svg" width="48" height="48" viewBox="0 0 48 48">
  <g id="Gruppe_1127" data-name="Gruppe 1127" transform="translate(4640 -207)">
    <rect id="Rechteck_549" data-name="Rechteck 549" width="48" height="48" transform="translate(-4640 207)" fill="none"/>
    <g id="akquinet-logo-2016" transform="translate(-4718.407 212)">
      <path id="Pfad_2" data-name="Pfad 2" d="M154.384,18.145H170.6a8.051,8.051,0,0,0-.479-1.712A10.39,10.39,0,0,0,168.706,14H154.894A18.124,18.124,0,0,1,154.384,18.145Z" transform="translate(-46.331 -4.327)" fill="#05806e"/>
      <path id="Pfad_3" data-name="Pfad 3" d="M151.671,25.145h17.482A9.531,9.531,0,0,0,169.84,21H153.364A20.345,20.345,0,0,1,151.671,25.145Z" transform="translate(-45.493 -6.491)" fill="#17518e"/>
      <path id="Pfad_4" data-name="Pfad 4" d="M154.591,8.733a17.988,17.988,0,0,1,.241,2.413h13.253q-.463-.527-.991-1.027A25.645,25.645,0,0,0,162.975,7h-8.762C154.358,7.541,154.488,8.12,154.591,8.733Z" transform="translate(-46.278 -2.164)" fill="#32a546"/>
      <path id="Pfad_5" data-name="Pfad 5" d="M160.867,4.145a46.287,46.287,0,0,0-5.455-2.618C153.971.942,152.635.459,151.154,0a15.781,15.781,0,0,1,1.912,4.145Z" transform="translate(-45.333)" fill="#a8c324"/>
      <path id="Pfad_6" data-name="Pfad 6" d="M135.345,42a60.194,60.194,0,0,1-6.279,4.145H140.8q1.042-.338,2.086-.7A65.086,65.086,0,0,0,151.037,42Z" transform="translate(-38.506 -12.982)" fill="#f3920f"/>
      <path id="Pfad_7" data-name="Pfad 7" d="M123.465,49c-.779.43-1.533.828-2.249,1.192-3.688,1.876-6.311,2.954-6.311,2.954A129.672,129.672,0,0,0,134.206,49Z" transform="translate(-34.454 -15.145)" fill="#fc0"/>
      <path id="Pfad_8" data-name="Pfad 8" d="M149.774,28a28.058,28.058,0,0,1-2.983,4.145h17.655a14.384,14.384,0,0,0,2.882-4.083l.028-.063Z" transform="translate(-43.984 -8.655)" fill="#c13b70"/>
      <path id="Pfad_9" data-name="Pfad 9" d="M143.906,35a37.162,37.162,0,0,1-3.606,3.444q-.426.357-.86.7h16.1q1-.557,1.915-1.129A27.366,27.366,0,0,0,161.461,35Z" transform="translate(-41.712 -10.818)" fill="#e7324c"/>
    </g>
  </g>
</svg>
