<svg xmlns="http://www.w3.org/2000/svg" width="48" height="46.815" viewBox="0 0 48 46.815">
  <path d="M160.318,107.44a24,24,0,0,0-7.585,46.774c1.2.22,1.638-.52,1.638-1.157,0-.57-.021-2.079-.032-4.083-6.676,1.451-8.084-3.216-8.084-3.216-1.092-2.773-2.665-3.511-2.665-3.511-2.179-1.49.165-1.459.165-1.459a5.039,5.039,0,0,1,3.676,2.472c2.141,3.669,5.618,2.609,6.985,1.995a5.13,5.13,0,0,1,1.523-3.209c-5.329-.606-10.932-2.664-10.932-11.862a9.278,9.278,0,0,1,2.471-6.44,8.622,8.622,0,0,1,.236-6.352s2.014-.645,6.6,2.46a22.76,22.76,0,0,1,12.017,0c4.582-3.106,6.593-2.46,6.593-2.46a8.625,8.625,0,0,1,.24,6.352,9.262,9.262,0,0,1,2.466,6.44c0,9.22-5.612,11.249-10.959,11.843a5.73,5.73,0,0,1,1.63,4.445c0,3.209-.029,5.8-.029,6.584,0,.641.433,1.388,1.65,1.154a24,24,0,0,0-7.6-46.771Z" transform="translate(-136.32 -107.44)" fill-rule="evenodd"/>
</svg>
