<svg xmlns="http://www.w3.org/2000/svg" xmlns:xlink="http://www.w3.org/1999/xlink" width="800" height="800" viewBox="0 0 800 800">
    <path id="waves-1" d="M293.732,29.934a66.685,66.685,0,0,0,64.592-12.848,65.477,65.477,0,0,1,85.639,0,66.684,66.684,0,0,0,64.592,12.848,65.479,65.479,0,0,1,79.122,32.773A66.683,66.683,0,0,0,642.435,99.3a65.478,65.478,0,0,1,60.558,60.557A66.682,66.682,0,0,0,739.58,214.61a65.48,65.48,0,0,1,32.773,79.122A66.684,66.684,0,0,0,785.2,358.324a65.477,65.477,0,0,1,0,85.639,66.684,66.684,0,0,0-12.848,64.592,65.479,65.479,0,0,1-32.773,79.122,66.682,66.682,0,0,0-36.588,54.757,65.479,65.479,0,0,1-60.558,60.558,66.682,66.682,0,0,0-54.757,36.588,65.479,65.479,0,0,1-79.122,32.773A66.684,66.684,0,0,0,443.963,785.2a65.477,65.477,0,0,1-85.639,0,66.684,66.684,0,0,0-64.592-12.848A65.48,65.48,0,0,1,214.61,739.58a66.682,66.682,0,0,0-54.757-36.588A65.478,65.478,0,0,1,99.3,642.435a66.683,66.683,0,0,0-36.588-54.757,65.479,65.479,0,0,1-32.773-79.122,66.684,66.684,0,0,0-12.848-64.592,65.477,65.477,0,0,1,0-85.639,66.685,66.685,0,0,0,12.848-64.592A65.479,65.479,0,0,1,62.707,214.61,66.683,66.683,0,0,0,99.3,159.853,65.478,65.478,0,0,1,159.853,99.3,66.683,66.683,0,0,0,214.61,62.707,65.479,65.479,0,0,1,293.732,29.934Z" transform="translate(-1.144 -1.144)" fill="none" />
    <path id="waves-2" d="M235.214,24.176A53.348,53.348,0,0,0,286.888,13.9a52.382,52.382,0,0,1,68.512,0,53.348,53.348,0,0,0,51.673,10.278,52.383,52.383,0,0,1,63.3,26.218,53.346,53.346,0,0,0,43.806,29.271,52.383,52.383,0,0,1,48.446,48.446,53.346,53.346,0,0,0,29.27,43.806,52.384,52.384,0,0,1,26.219,63.3,53.347,53.347,0,0,0,10.278,51.673,52.381,52.381,0,0,1,0,68.512,53.347,53.347,0,0,0-10.278,51.673,52.384,52.384,0,0,1-26.219,63.3,53.346,53.346,0,0,0-29.27,43.806,52.383,52.383,0,0,1-48.446,48.446,53.346,53.346,0,0,0-43.806,29.27,52.384,52.384,0,0,1-63.3,26.219A53.347,53.347,0,0,0,355.4,628.39a52.381,52.381,0,0,1-68.512,0,53.347,53.347,0,0,0-51.673-10.278,52.384,52.384,0,0,1-63.3-26.219,53.346,53.346,0,0,0-43.806-29.27,52.383,52.383,0,0,1-48.446-48.446,53.346,53.346,0,0,0-29.271-43.806,52.383,52.383,0,0,1-26.218-63.3A53.348,53.348,0,0,0,13.9,355.4a52.382,52.382,0,0,1,0-68.512,53.348,53.348,0,0,0,10.278-51.673,52.384,52.384,0,0,1,26.218-63.3,53.346,53.346,0,0,0,29.271-43.806,52.382,52.382,0,0,1,48.446-48.446,53.346,53.346,0,0,0,43.806-29.271A52.384,52.384,0,0,1,235.214,24.176Z" transform="translate(313.341 -45.821) rotate(34)" fill="none" />
    <path id="waves-3" d="M176.7,18.418a40.011,40.011,0,0,0,38.755-7.709,39.286,39.286,0,0,1,51.384,0,40.011,40.011,0,0,0,38.755,7.709,39.287,39.287,0,0,1,47.473,19.664,40.01,40.01,0,0,0,32.854,21.953,39.287,39.287,0,0,1,36.335,36.334,40.009,40.009,0,0,0,21.953,32.854A39.288,39.288,0,0,1,463.87,176.7a40.01,40.01,0,0,0,7.709,38.755,39.286,39.286,0,0,1,0,51.384,40.01,40.01,0,0,0-7.709,38.755,39.288,39.288,0,0,1-19.664,47.473,40.009,40.009,0,0,0-21.953,32.854,39.287,39.287,0,0,1-36.335,36.335,40.009,40.009,0,0,0-32.854,21.953,39.288,39.288,0,0,1-47.473,19.664,40.01,40.01,0,0,0-38.755,7.709,39.286,39.286,0,0,1-51.384,0A40.01,40.01,0,0,0,176.7,463.87a39.288,39.288,0,0,1-47.473-19.664,40.009,40.009,0,0,0-32.854-21.953,39.287,39.287,0,0,1-36.334-36.335,40.01,40.01,0,0,0-21.953-32.854,39.287,39.287,0,0,1-19.664-47.473,40.011,40.011,0,0,0-7.709-38.755,39.286,39.286,0,0,1,0-51.384A40.011,40.011,0,0,0,18.418,176.7a39.288,39.288,0,0,1,19.664-47.473A40.01,40.01,0,0,0,60.035,96.369,39.287,39.287,0,0,1,96.369,60.035a40.01,40.01,0,0,0,32.854-21.953A39.288,39.288,0,0,1,176.7,18.418Z" transform="translate(277.786 81.622) rotate(24)" fill="none" />
    <path id="waves-4" d="M118.179,12.66A26.674,26.674,0,0,0,144.016,7.52a26.191,26.191,0,0,1,34.256,0,26.674,26.674,0,0,0,25.837,5.139,26.192,26.192,0,0,1,31.649,13.109A26.673,26.673,0,0,0,257.66,40.4a26.191,26.191,0,0,1,24.223,24.223,26.673,26.673,0,0,0,14.635,21.9,26.192,26.192,0,0,1,13.109,31.649,26.674,26.674,0,0,0,5.139,25.837,26.191,26.191,0,0,1,0,34.256,26.673,26.673,0,0,0-5.139,25.837,26.192,26.192,0,0,1-13.109,31.649,26.673,26.673,0,0,0-14.635,21.9,26.192,26.192,0,0,1-24.223,24.223,26.673,26.673,0,0,0-21.9,14.635,26.192,26.192,0,0,1-31.649,13.109,26.673,26.673,0,0,0-25.837,5.139,26.191,26.191,0,0,1-34.256,0,26.674,26.674,0,0,0-25.837-5.139A26.192,26.192,0,0,1,86.53,296.518a26.673,26.673,0,0,0-21.9-14.635A26.191,26.191,0,0,1,40.4,257.66a26.673,26.673,0,0,0-14.635-21.9A26.192,26.192,0,0,1,12.66,204.108,26.674,26.674,0,0,0,7.52,178.272a26.191,26.191,0,0,1,0-34.256,26.674,26.674,0,0,0,5.139-25.837A26.192,26.192,0,0,1,25.769,86.53,26.673,26.673,0,0,0,40.4,64.627,26.191,26.191,0,0,1,64.627,40.4a26.673,26.673,0,0,0,21.9-14.635A26.192,26.192,0,0,1,118.179,12.66Z" transform="matrix(0.966, 0.259, -0.259, 0.966, 286.054, 202.64)" fill="none" />
</svg>
