<svg xmlns="http://www.w3.org/2000/svg" width="39.659" height="55.979" viewBox="0 0 39.659 55.979">
  <g id="layer1" transform="translate(-0.001)">
    <g id="g3013" transform="translate(0)">
      <path id="Differenzmenge_8" data-name="Differenzmenge 8" d="M-520.992-1433.022h0l-16.2-4.5L-540.8-1478h39.659l-3.614,40.476-16.24,4.5Zm-10.865-19.207.7,7.8,10.17,2.824.023-.006,10.162-2.818.074-.838,1.166-13.072.121-1.333.9-10.049h-24.871l.452,4.964h18.977l-.451,5.084h-18.084l.446,4.965h17.207l-.576,6.439-5.538,1.495-.005,0-5.529-1.494-.355-3.96h-4.983Z" transform="translate(540.798 1489.001)" fill="#264de4"/>
      <path id="path2999" d="M160,0h6.013V2.515h-3.5V5.029h3.5V7.544H160Z" transform="translate(-150.666)" fill="#264de4"/>
      <path id="path3001" d="M226,0h6.013V2.187h-3.5v.437h3.5V7.653H226v-2.3h3.5V4.92H226Z" transform="translate(-209.45)" fill="#264de4"/>
      <path id="path3003" d="M292,0h6.013V2.187h-3.5v.437h3.5V7.653H292v-2.3h3.5V4.92H292Z" transform="translate(-268.234)" fill="#264de4"/>
    </g>
  </g>
</svg>
