<svg xmlns="http://www.w3.org/2000/svg" width="36" height="48" viewBox="0 0 36 48"><defs><linearGradient id="a" x1="14.802%" x2="61.899%" y1="15.459%" y2="93.56%"><stop offset="0%" stop-color="#C36AD5"/><stop offset="12.687%" stop-color="#AE5CCC"/><stop offset="56.594%" stop-color="#7234B1"/><stop offset="100%" stop-color="#54219F"/></linearGradient></defs><path fill="url(#a)" fill-rule="evenodd" d="M507.004 992.122L507 969.888c0-9.88 8.059-17.888 18-17.888s18 8.009 18 17.888c0 9.879-7.89 17.888-17.832 17.888-3.159 0-5.72-2.545-5.72-5.684 0-3.14 2.561-5.684 5.72-5.684 3.624 0 6.393-2.92 6.393-6.52 0-3.601-2.938-6.52-6.561-6.52-3.623 0-6.56 2.919-6.56 6.519l.003 24.429c.001 5.508-6.043 7.013-9.345 4.514a3.667 3.667 0 0 0 1.603-3.03c0-2.03-1.655-3.676-3.697-3.678zm18.164-6.353c2.044 0 3.701-1.646 3.701-3.677 0-2.032-1.657-3.678-3.7-3.678-2.045 0-3.702 1.646-3.702 3.678 0 2.03 1.657 3.677 3.701 3.677z" transform="translate(-507 -952)"/></svg>